<svg id="Layer_1" data-name="Layer 1" xmlns="http://www.w3.org/2000/svg" viewBox="0 0 38 38">
  <defs>
    <style>
      .cls-1 {
        fill: none;
      }

      .cls-2 {
        fill: #010101;
      }
    </style>
  </defs>
  <title>blockquote</title>
  <g>
    <rect class="cls-1" width="38" height="38"/>
    <path class="cls-2" d="M15.09,23.51a3,3,0,0,1-2.18-.91,3.22,3.22,0,0,1-.66-1A3.61,3.61,0,0,1,12,20.21a5,5,0,0,1,.28-1.63A5.33,5.33,0,0,1,13.18,17a6.84,6.84,0,0,1,1.51-1.37,7.05,7.05,0,0,1,2.16-1l.49-.16.47,1.5-.29.09a5.78,5.78,0,0,0-1.8,1,3.39,3.39,0,0,0-1.07,1.41h.47a2.55,2.55,0,0,1,1.8.7,2.45,2.45,0,0,1,.55.78,2.4,2.4,0,0,1,.2,1,2.47,2.47,0,0,1-.2,1,2.52,2.52,0,0,1-.55.81,2.59,2.59,0,0,1-.82.54A2.65,2.65,0,0,1,15.09,23.51Zm8.18,0a3,3,0,0,1-2.18-.91,3.22,3.22,0,0,1-.66-1,3.61,3.61,0,0,1-.25-1.35,5,5,0,0,1,.28-1.63A5.33,5.33,0,0,1,21.36,17a6.84,6.84,0,0,1,1.51-1.37,7.07,7.07,0,0,1,2.16-1l.49-.16L26,16l-.29.09a5.78,5.78,0,0,0-1.8,1,3.39,3.39,0,0,0-1.07,1.41h.47a2.55,2.55,0,0,1,1.8.7,2.45,2.45,0,0,1,.55.78,2.4,2.4,0,0,1,.2,1,2.47,2.47,0,0,1-.2,1,2.52,2.52,0,0,1-.55.81,2.59,2.59,0,0,1-.82.54A2.65,2.65,0,0,1,23.27,23.49Z"/>
  </g>
</svg>
