<svg id="Layer_1" data-name="Layer 1" xmlns="http://www.w3.org/2000/svg" viewBox="0 0 38 38">
  <defs>
    <style>
      .cls-1 {
        fill: none;
      }

      .cls-2 {
        fill: #010101;
      }
    </style>
  </defs>
  <title>headline_three</title>
  <g>
    <rect class="cls-1" width="38" height="38"/>
    <g>
      <path class="cls-2" d="M18.65,20.16l-6.13,0v5.51H11.11l0-12h1.43v5.21l6.13,0V13.68h1.44l0,12H18.67Z"/>
      <path class="cls-2" d="M22.65,18.18a2,2,0,0,0,.64.86,1.79,1.79,0,0,0,1.13.33,2,2,0,0,0,.68-.1,1.41,1.41,0,0,0,.49-.29,1.19,1.19,0,0,0,.3-.42A1.34,1.34,0,0,0,26,18a1.1,1.1,0,0,0-.48-1,2.1,2.1,0,0,0-1.24-.34h-.32V16h.28a2.06,2.06,0,0,0,.72-.12,1.53,1.53,0,0,0,.51-.3,1.22,1.22,0,0,0,.3-.42,1.2,1.2,0,0,0,.1-.47,1.12,1.12,0,0,0-.1-.45,1.23,1.23,0,0,0-.27-.39,1.2,1.2,0,0,0-.45-.27,1.82,1.82,0,0,0-.61-.1,1.69,1.69,0,0,0-1,.31,1.85,1.85,0,0,0-.62.77L22,14.17A2.36,2.36,0,0,1,23,13.06a2.71,2.71,0,0,1,1.44-.39,2.89,2.89,0,0,1,.94.14,2.23,2.23,0,0,1,.74.41,1.93,1.93,0,0,1,.49.62,1.74,1.74,0,0,1,.18.77,1.71,1.71,0,0,1-.1.61,1.74,1.74,0,0,1-.28.49,1.57,1.57,0,0,1-.43.37,1.74,1.74,0,0,1-.53.2,1.75,1.75,0,0,1,1.39,1.11,1.71,1.71,0,0,1,.12.62,1.92,1.92,0,0,1-.75,1.58,2.43,2.43,0,0,1-.8.41,3.33,3.33,0,0,1-1,.14,3.1,3.1,0,0,1-1.6-.41,2.28,2.28,0,0,1-1-1.18Z"/>
    </g>
  </g>
</svg>
