<svg id="Layer_1" data-name="Layer 1" xmlns="http://www.w3.org/2000/svg" viewBox="0 0 38 38">
  <defs>
    <style>
      .cls-1 {
        fill: none;
      }

      .cls-2 {
        fill: #010101;
      }
    </style>
  </defs>
  <title>headline_two</title>
  <g>
    <rect class="cls-1" width="38" height="38"/>
    <g>
      <path class="cls-2" d="M17.93,20.62H12.72v5.05H10.33l0-12H12.7v4.75h5.21V13.68H20.3l0,12H17.94Z"/>
      <path class="cls-2" d="M24.83,14a1.34,1.34,0,0,0-.53.1,1,1,0,0,0-.38.27,1.13,1.13,0,0,0-.22.41,1.7,1.7,0,0,0-.07.51l-1.53-.13a2.64,2.64,0,0,1,.21-1.07,2.28,2.28,0,0,1,.58-.79,2.5,2.5,0,0,1,.86-.49,3.41,3.41,0,0,1,1.09-.17,3.31,3.31,0,0,1,1.12.18,2.56,2.56,0,0,1,.87.51,2.27,2.27,0,0,1,.56.79,2.51,2.51,0,0,1,.2,1,2.64,2.64,0,0,1-.24,1.12,3.87,3.87,0,0,1-.64,1,5.49,5.49,0,0,1-.91.81,9.85,9.85,0,0,1-1.06.66l-.14.07h3.09v1.34h-5.4V18.79l.85-.48q.44-.26.85-.54t.78-.58a4.81,4.81,0,0,0,.64-.63,3.06,3.06,0,0,0,.43-.67,1.69,1.69,0,0,0,.16-.72,1.24,1.24,0,0,0-.07-.42,1.08,1.08,0,0,0-.22-.36,1,1,0,0,0-.36-.26A1.26,1.26,0,0,0,24.83,14Z"/>
    </g>
  </g>
</svg>
