<svg id="Layer_1" data-name="Layer 1" xmlns="http://www.w3.org/2000/svg" viewBox="0 0 38 38">
  <defs>
    <style>
      .cls-1 {
        fill: none;
      }

      .cls-2 {
        fill: #010101;
      }
    </style>
  </defs>
  <title>link</title>
  <g>
    <rect class="cls-1" width="38" height="38"/>
    <g>
      <g>
        <path class="cls-2" d="M25.4,12.56a2.65,2.65,0,0,0-1.88-.78h0a2.65,2.65,0,0,0-1.89.79l-2.17,2.18a2.67,2.67,0,0,0-.65,2.69l.06.2,1.07-1.07v0a1.41,1.41,0,0,1,.41-.89l2.17-2.18a1.42,1.42,0,1,1,2,2l-2.17,2.18a1.42,1.42,0,0,1-.89.41h0l-1.06,1.07.2.06a2.67,2.67,0,0,0,2.69-.67l2.17-2.18a2.67,2.67,0,0,0,0-3.78Z"/>
        <path class="cls-2" d="M19.13,20.35l-1.06,1.07v0a1.41,1.41,0,0,1-.41.89l-2.17,2.18a1.42,1.42,0,0,1-2-2l2.17-2.18a1.41,1.41,0,0,1,.89-.41h0l1.06-1.07-.2-.06a2.67,2.67,0,0,0-2.69.67l-2.17,2.18a2.67,2.67,0,0,0,1.89,4.56h0a2.66,2.66,0,0,0,1.89-.79l2.17-2.18a2.66,2.66,0,0,0,.65-2.69Z"/>
      </g>
      <polygon class="cls-2" points="21.54 15.6 15.7 21.47 15.62 21.55 16.46 22.4 22.3 16.53 22.39 16.44 21.54 15.6"/>
    </g>
  </g>
</svg>
