<svg id="Layer_1" data-name="Layer 1" xmlns="http://www.w3.org/2000/svg" viewBox="0 0 38 38">
  <defs>
    <style>
      .cls-1 {
        fill: none;
      }

      .cls-2 {
        fill: #010101;
      }
    </style>
  </defs>
  <title>number_list</title>
  <g>
    <rect class="cls-1" width="38" height="38"/>
    <g>
      <path class="cls-2" d="M16.49,15.08v-2l10,0v2Z"/>
      <path class="cls-2" d="M16.5,20.08v-2l10,0v2Z"/>
      <path class="cls-2" d="M16.52,25.08v-2l10,0v2Z"/>
      <path class="cls-2" d="M13.23,12.24v3H14v.68H11.7v-.68h.77V13.49H11.7v-.68H12a1,1,0,0,0,.27,0,.35.35,0,0,0,.16-.09.33.33,0,0,0,.08-.16,1.14,1.14,0,0,0,0-.23v-.06Z"/>
      <path class="cls-2" d="M12.84,17.92a.66.66,0,0,0-.26,0,.5.5,0,0,0-.19.14.56.56,0,0,0-.11.2.85.85,0,0,0,0,.25l-.76-.07A1.32,1.32,0,0,1,11.6,18a1.13,1.13,0,0,1,.28-.39,1.23,1.23,0,0,1,.43-.24,1.67,1.67,0,0,1,.54-.08,1.62,1.62,0,0,1,.55.09,1.26,1.26,0,0,1,.43.25,1.12,1.12,0,0,1,.28.39,1.25,1.25,0,0,1,.1.5,1.32,1.32,0,0,1-.12.56,1.92,1.92,0,0,1-.31.48,2.71,2.71,0,0,1-.45.4,4.85,4.85,0,0,1-.52.33l-.07,0h1.52v.67H11.59v-.66L12,20l.42-.27.38-.29a2.38,2.38,0,0,0,.31-.31,1.52,1.52,0,0,0,.21-.33.84.84,0,0,0,.08-.36.62.62,0,0,0,0-.21.54.54,0,0,0-.11-.18.51.51,0,0,0-.18-.13A.62.62,0,0,0,12.84,17.92Z"/>
      <path class="cls-2" d="M12.18,24.79a.7.7,0,0,0,.11.22.66.66,0,0,0,.17.16.72.72,0,0,0,.21.09l.24,0a.89.89,0,0,0,.29,0,.56.56,0,0,0,.19-.11A.39.39,0,0,0,13.5,25a.47.47,0,0,0,0-.17.39.39,0,0,0-.18-.34,1,1,0,0,0-.54-.12h-.2v-.61h.15a1,1,0,0,0,.52-.11.35.35,0,0,0,.19-.33.35.35,0,0,0,0-.17A.39.39,0,0,0,13.3,23a.57.57,0,0,0-.18-.08.8.8,0,0,0-.22,0,.77.77,0,0,0-.25,0,.71.71,0,0,0-.35.26.81.81,0,0,0-.1.19l-.64-.26a1,1,0,0,1,.19-.37,1.26,1.26,0,0,1,.31-.28,1.48,1.48,0,0,1,.39-.17,1.66,1.66,0,0,1,.44-.06,1.89,1.89,0,0,1,.52.07,1.3,1.3,0,0,1,.42.2.93.93,0,0,1,.28.32.9.9,0,0,1,.1.43.76.76,0,0,1,0,.27.81.81,0,0,1-.12.22.79.79,0,0,1-.19.17.91.91,0,0,1-.23.11.88.88,0,0,1,.26.1.82.82,0,0,1,.21.18.8.8,0,0,1,.14.24.86.86,0,0,1,.05.3,1,1,0,0,1-.11.45,1,1,0,0,1-.29.35,1.39,1.39,0,0,1-.44.22,1.82,1.82,0,0,1-.55.08,1.84,1.84,0,0,1-.5-.07,1.54,1.54,0,0,1-.43-.19,1.21,1.21,0,0,1-.32-.3,1,1,0,0,1-.18-.4Z"/>
      <path class="cls-2" d="M16.49,15.08v-2l10,0v2Z"/>
      <path class="cls-2" d="M16.5,20.08v-2l10,0v2Z"/>
      <path class="cls-2" d="M16.52,25.08v-2l10,0v2Z"/>
      <path class="cls-2" d="M13.23,12.24v3H14v.68H11.7v-.68h.77V13.49H11.7v-.68H12a1,1,0,0,0,.27,0,.35.35,0,0,0,.16-.09.33.33,0,0,0,.08-.16,1.14,1.14,0,0,0,0-.23v-.06Z"/>
      <path class="cls-2" d="M12.84,17.92a.66.66,0,0,0-.26,0,.5.5,0,0,0-.19.14.56.56,0,0,0-.11.2.85.85,0,0,0,0,.25l-.76-.07A1.32,1.32,0,0,1,11.6,18a1.13,1.13,0,0,1,.28-.39,1.23,1.23,0,0,1,.43-.24,1.67,1.67,0,0,1,.54-.08,1.62,1.62,0,0,1,.55.09,1.26,1.26,0,0,1,.43.25,1.12,1.12,0,0,1,.28.39,1.25,1.25,0,0,1,.1.5,1.32,1.32,0,0,1-.12.56,1.92,1.92,0,0,1-.31.48,2.71,2.71,0,0,1-.45.4,4.85,4.85,0,0,1-.52.33l-.07,0h1.52v.67H11.59v-.66L12,20l.42-.27.38-.29a2.38,2.38,0,0,0,.31-.31,1.52,1.52,0,0,0,.21-.33.84.84,0,0,0,.08-.36.62.62,0,0,0,0-.21.54.54,0,0,0-.11-.18.51.51,0,0,0-.18-.13A.62.62,0,0,0,12.84,17.92Z"/>
      <path class="cls-2" d="M12.18,24.79a.7.7,0,0,0,.11.22.66.66,0,0,0,.17.16.72.72,0,0,0,.21.09l.24,0a.89.89,0,0,0,.29,0,.56.56,0,0,0,.19-.11A.39.39,0,0,0,13.5,25a.47.47,0,0,0,0-.17.39.39,0,0,0-.18-.34,1,1,0,0,0-.54-.12h-.2v-.61h.15a1,1,0,0,0,.52-.11.35.35,0,0,0,.19-.33.35.35,0,0,0,0-.17A.39.39,0,0,0,13.3,23a.57.57,0,0,0-.18-.08.8.8,0,0,0-.22,0,.77.77,0,0,0-.25,0,.71.71,0,0,0-.35.26.81.81,0,0,0-.1.19l-.64-.26a1,1,0,0,1,.19-.37,1.26,1.26,0,0,1,.31-.28,1.48,1.48,0,0,1,.39-.17,1.66,1.66,0,0,1,.44-.06,1.89,1.89,0,0,1,.52.07,1.3,1.3,0,0,1,.42.2.93.93,0,0,1,.28.32.9.9,0,0,1,.1.43.76.76,0,0,1,0,.27.81.81,0,0,1-.12.22.79.79,0,0,1-.19.17.91.91,0,0,1-.23.11.88.88,0,0,1,.26.1.82.82,0,0,1,.21.18.8.8,0,0,1,.14.24.86.86,0,0,1,.05.3,1,1,0,0,1-.11.45,1,1,0,0,1-.29.35,1.39,1.39,0,0,1-.44.22,1.82,1.82,0,0,1-.55.08,1.84,1.84,0,0,1-.5-.07,1.54,1.54,0,0,1-.43-.19,1.21,1.21,0,0,1-.32-.3,1,1,0,0,1-.18-.4Z"/>
    </g>
  </g>
</svg>
